<svg width="48" height="43" viewBox="0 0 48 43" fill="none" xmlns="http://www.w3.org/2000/svg">
<path d="M15.0606 36.3527L0.707107 21.9993L15.0606 7.64583C15.2563 7.45009 15.5717 7.45009 15.7674 7.64583C15.9632 7.84156 15.9632 8.15698 15.7674 8.35272L2.47445 21.6457L2.12089 21.9993L2.47445 22.3528L15.7674 35.6458C15.9632 35.8416 15.9632 36.157 15.7674 36.3527C15.6698 36.4504 15.5425 36.4993 15.414 36.4993C15.2855 36.4993 15.1582 36.4504 15.0606 36.3527Z" stroke="url(#paint0_linear_441_21)"/>
<path d="M45.3534 22.3528L45.7069 21.9993L45.3534 21.6457L32.0604 8.35272C31.8646 8.15698 31.8646 7.84156 32.0604 7.64583C32.2561 7.45009 32.5715 7.45009 32.7673 7.64583L47.1207 21.9993L32.7673 36.3527C32.6696 36.4504 32.5423 36.4993 32.4138 36.4993C32.2853 36.4993 32.1581 36.4504 32.0604 36.3527C31.8646 36.157 31.8646 35.8416 32.0604 35.6458L45.3534 22.3528Z" stroke="url(#paint1_linear_441_21)"/>
<path d="M27.9253 0.892268L27.9253 0.892542L18.9254 41.8921L27.9253 0.892268ZM27.9253 0.892268C27.984 0.624193 28.2524 0.452761 28.5206 0.511688L28.521 0.511771M27.9253 0.892268L28.521 0.511771M28.521 0.511771C28.7895 0.57055 28.9607 0.83647 28.9014 1.1076L19.9015 42.1071L19.9014 42.1076M28.521 0.511771L19.9014 42.1076M19.9014 42.1076C19.8508 42.3394 19.6447 42.4993 19.4149 42.4993C19.3816 42.4993 19.3438 42.4956 19.3035 42.4874M19.9014 42.1076L19.3035 42.4874M19.3035 42.4874C19.0365 42.4276 18.8665 42.1627 18.9253 41.8925L19.3035 42.4874Z" stroke="url(#paint2_linear_441_21)"/>
<defs>
<linearGradient id="paint0_linear_441_21" x1="8.20713" y1="6.99902" x2="8.20713" y2="36.9993" gradientUnits="userSpaceOnUse">
<stop offset="0.380208" stop-color="#9F9F9F"/>
<stop offset="1" stop-opacity="0.28"/>
</linearGradient>
<linearGradient id="paint1_linear_441_21" x1="39.6207" y1="6.99902" x2="39.6207" y2="36.9993" gradientUnits="userSpaceOnUse">
<stop offset="0.380208" stop-color="#9F9F9F"/>
<stop offset="1" stop-opacity="0.28"/>
</linearGradient>
<linearGradient id="paint2_linear_441_21" x1="23.9134" y1="0" x2="23.9134" y2="42.9993" gradientUnits="userSpaceOnUse">
<stop offset="0.380208" stop-color="#9F9F9F"/>
<stop offset="1" stop-opacity="0.28"/>
</linearGradient>
</defs>
</svg>
