<svg width="21" height="19" viewBox="0 0 21 19" fill="none" xmlns="http://www.w3.org/2000/svg">
<path d="M19.0787 12.6956L19.067 9.74384L21 8.15521L10.4712 0L0 8.31831L4.19817 11.8584L4.20654 13.962L4.2074 14.13L4.24575 14.103C4.2015 14.1912 4.17314 14.2819 4.174 14.3726C4.17733 15.4072 7.0209 16.226 10.5305 16.1979C14.0385 16.1709 16.8779 15.3043 16.8754 14.2721C16.8754 14.1814 16.8428 14.0932 16.7994 14.0025L16.8378 14.0295V13.8615L16.8303 11.7494L18.6506 10.086L18.6606 12.6994C18.4603 12.8256 18.321 13.115 18.3226 13.4533C18.3243 13.8971 18.5696 14.2562 18.8743 14.2525C19.1806 14.25 19.4235 13.8872 19.4218 13.4447C19.42 13.1063 19.2799 12.8195 19.0787 12.6956ZM10.528 15.4856C7.41403 15.5113 4.88841 15.0087 4.88594 14.3677C4.88346 13.7266 7.40566 13.1885 10.5197 13.1651C13.6345 13.1394 16.1593 13.6395 16.161 14.2794C16.1634 14.9181 13.6428 15.4611 10.528 15.4856ZM16.6867 10.0357C16.2652 9.38476 14.7545 7.66614 10.4996 7.70178C6.23883 7.7349 4.74738 9.47434 4.33092 10.135L4.32845 9.51236C4.32845 9.51236 5.53697 6.81186 10.4964 6.77384C15.4532 6.73457 16.6843 9.41424 16.6843 9.41424L16.6867 10.0357ZM18.4311 14.4289L18.2166 19C18.8801 17.469 19.4343 18.0389 19.4343 18.0389L19.421 14.4215C18.7081 14.8323 18.4311 14.4289 18.4311 14.4289Z" fill="#BABABA"/>
</svg>
