<svg width="375" height="66" viewBox="0 0 375 66" fill="none" xmlns="http://www.w3.org/2000/svg">
<path d="M31.7509 56.9563L22.1402 43.8995H11.5328V56.9563H0V10.0855H21.5706C25.9844 10.0855 29.8065 10.776 33.0323 12.1612C36.307 13.5423 38.8254 15.5092 40.5784 18.0536C42.336 20.598 43.2125 23.6111 43.2125 27.093C43.2125 30.5748 42.3137 33.5879 40.5073 36.1323C38.7542 38.6307 36.2358 40.5516 32.9611 41.8907L44.138 56.9563H31.7509ZM31.5373 27.093C31.5373 24.4565 30.6385 22.4477 28.8321 21.0667C27.03 19.6397 24.396 18.924 20.9299 18.924H11.5328V35.2619H20.9299C24.396 35.2619 27.03 34.5504 28.8321 33.1192C30.6385 31.6922 31.5373 29.6834 31.5373 27.093ZM93.0724 48.2518V56.9563H54.4873V10.0855H92.1469V18.7901H65.9489V28.9678H89.0858V37.4045H65.9489V48.2518H93.0724ZM137.201 46.9126H114.065L109.651 56.9563H97.8332L120.045 10.0855H131.435L153.718 56.9563H141.615L137.201 46.9126ZM133.571 38.6767L125.669 20.7319L117.767 38.6767H133.571ZM184.178 57.7598C179.101 57.7598 174.496 56.7345 170.367 54.6798C166.378 52.6646 163.036 49.6822 160.685 46.0421C158.358 42.3385 157.197 38.162 157.197 33.5209C157.197 28.8799 158.358 24.7285 160.685 21.0667C163.009 17.4063 166.358 14.418 170.367 12.4291C174.496 10.3324 179.124 9.28204 184.249 9.28204C188.57 9.28204 192.458 9.99347 195.925 11.4247C199.346 12.7894 202.372 14.9011 204.752 17.5849L197.348 24.0129C193.98 20.3511 189.802 18.5223 184.819 18.5223C181.735 18.5223 178.981 19.1709 176.561 20.4641C174.17 21.6863 172.195 23.5203 170.866 25.7538C169.535 28.0304 168.872 30.6208 168.872 33.5209C168.872 36.4211 169.535 39.0115 170.866 41.2881C172.24 43.5647 174.14 45.3475 176.561 46.6448C178.981 47.896 181.735 48.5196 184.819 48.5196C189.802 48.5196 193.98 46.6657 197.348 42.9621L204.752 49.3901C202.381 52.1102 199.435 54.1901 195.925 55.6172C192.414 57.0442 188.499 57.7598 184.178 57.7598ZM224.512 18.924H208.565V10.0855H251.991V18.924H236.045V56.9563H224.512V18.924ZM359.876 21.4182C358.937 21.1253 358.158 20.8324 357.375 20.6817C357.375 20.0958 357.531 19.5057 357.687 18.9157C359.564 10.2362 358.314 3.1721 354.092 0.820189C350.02 -1.38525 343.297 0.966658 336.414 6.55768C335.787 7.00127 335.164 7.58716 334.537 8.17723C334.069 7.73363 333.598 7.44069 333.286 7.00127C326.092 1.11313 318.892 -1.38525 314.67 0.96666C310.603 3.1721 309.353 9.79679 311.075 18.1791C311.231 18.9157 311.386 19.7987 311.698 20.5352C310.603 20.8282 309.664 21.1211 308.726 21.414C300.436 24.2137 294.492 28.4781 294.492 32.8932C294.492 37.4547 300.748 42.1627 309.509 44.9583C310.136 45.1047 310.915 45.3977 311.542 45.5441C311.386 46.4272 311.231 47.3102 310.915 48.1932C309.353 56.2868 310.603 62.7566 314.67 64.9662C318.892 67.3223 326.092 64.9662 332.97 59.2287C333.442 58.7893 334.069 58.3457 334.537 57.9063C335.32 58.4922 335.943 59.0781 336.726 59.6682C343.453 65.1127 350.02 67.3223 354.092 65.1127C358.314 62.7608 359.72 55.8432 357.998 47.3102C357.842 46.7243 357.687 45.9877 357.531 45.3977L358.937 44.9583C368.009 42.1627 374.581 37.6012 374.581 32.8932C374.581 28.4781 368.325 24.0631 359.876 21.4182ZM338.603 8.91377C344.548 4.0593 349.865 2.28908 352.37 3.61569C355.026 4.93812 356.125 10.8263 354.403 18.3256C354.247 18.9157 354.247 19.3593 354.092 19.7987C350.583 19.0924 347.029 18.6003 343.453 18.3256C341.439 15.5531 339.244 12.9004 336.881 10.3827C337.509 9.94326 337.976 9.35318 338.603 8.90959V8.91377ZM320.614 40.5432C321.397 41.8656 322.181 43.0458 323.119 44.3682C320.614 44.0752 318.114 43.7823 315.765 43.1922C316.548 41.1333 317.331 38.9236 318.27 36.7182C319.053 38.0406 319.831 39.2208 320.614 40.5432ZM315.765 22.8871C318.114 22.3012 320.459 22.0083 322.959 21.7154C322.181 22.8871 321.397 24.2137 320.614 25.3897C319.831 26.7121 319.053 27.8923 318.27 29.2147C317.331 27.0093 316.548 24.9461 315.765 22.8871ZM320.147 33.0397C321.086 30.9807 322.336 28.9217 323.431 27.0093C324.681 25.0968 325.931 23.1843 327.342 21.2718C329.687 21.1253 332.036 20.9788 334.537 20.9788C336.881 20.9788 339.386 21.1253 341.575 21.2718C342.981 23.1843 344.236 25.0968 345.486 27.0051C346.581 28.9218 347.831 30.8342 348.77 32.8932C347.831 34.9522 346.737 37.0111 345.486 38.9236L341.731 44.6611C339.386 44.8118 336.881 44.9541 334.537 44.9541C332.036 44.9541 329.687 44.8118 327.342 44.6611C325.931 42.7486 324.681 40.8361 323.431 38.9278C322.336 37.0111 321.242 34.9522 320.147 33.0397ZM348.303 40.5432C349.242 39.2208 349.865 37.8942 350.648 36.5675C351.587 38.7772 352.525 40.8361 353.308 43.0458C350.803 43.6316 348.459 44.0752 345.954 44.2217C346.737 43.0458 347.52 41.7191 348.303 40.5432ZM350.648 29.2147C349.865 27.8923 349.086 26.7121 348.303 25.3897C347.52 24.2137 346.737 22.8871 345.954 21.7112C348.459 22.0041 350.959 22.4477 353.153 22.8871C352.37 25.0968 351.587 27.1557 350.648 29.2147ZM334.537 12.7388C336.103 14.3541 337.664 16.1202 339.075 18.0327C335.999 17.8857 332.918 17.8857 329.842 18.0327C331.33 16.2084 332.896 14.4423 334.537 12.7388ZM316.392 3.61569C319.053 2.28908 324.837 4.35224 330.937 9.35318C331.409 9.7926 331.72 10.0897 332.192 10.3827C329.732 12.8612 327.483 15.5169 325.464 18.3256C321.865 18.6185 318.425 19.0621 314.981 19.7987C314.683 19.0385 314.474 18.2498 314.358 17.4468C312.948 10.3827 313.887 5.08459 316.392 3.61569ZM312.481 42.4557C311.834 42.3271 311.204 42.1306 310.603 41.8698C307.32 40.8361 303.409 39.3672 300.748 37.3083C299.174 36.265 298.105 34.6771 297.776 32.8932C297.776 30.2442 302.781 26.7121 309.82 24.356C310.759 24.0631 311.698 23.9166 312.637 23.6237C313.575 26.8628 314.981 29.9512 316.392 33.0397C314.826 35.9817 313.575 39.2208 312.481 42.4557ZM330.781 56.8727C328.164 59.0808 325.143 60.8248 321.865 62.0201C320.147 62.9073 318.27 62.9073 316.392 62.3172C313.887 60.8483 312.948 55.6967 314.358 48.7833C314.514 47.9002 314.67 47.0172 314.826 46.2807C318.425 47.0172 321.865 47.4566 325.464 47.7538C327.572 50.4529 329.817 53.0548 332.192 55.5502L330.781 56.8727ZM334.537 53.3448C332.858 51.6193 331.291 49.8012 329.842 47.9002C331.409 48.0467 332.97 48.0467 334.537 48.0467C336.103 48.0467 337.664 48.0467 339.231 47.9002C337.8 49.8124 336.232 51.6343 334.537 53.3448ZM355.026 57.7557C354.845 59.5214 353.95 61.1542 352.525 62.3172C350.02 63.6438 344.703 61.8778 338.915 57.3162C338.274 56.6905 337.595 56.1008 336.881 55.5502C339.339 53.1224 341.589 50.5154 343.609 47.7538C347.208 47.4608 350.648 46.8708 354.247 46.1342L354.715 47.9002C355.342 51.1352 355.498 54.5207 355.026 57.7557ZM357.842 41.8656C357.375 42.0163 357.059 42.1586 356.592 42.3092C355.468 39.0865 354.109 35.9404 352.525 32.8932C354.085 29.9042 355.392 26.8049 356.436 23.6237C357.22 23.9166 357.998 24.0673 358.781 24.3602C365.976 26.7121 371.142 30.2442 371.142 32.8932C371.142 35.6887 365.664 39.5137 357.842 41.8656ZM334.537 39.6602C338.448 39.6602 341.575 36.7182 341.575 32.8932C341.575 29.2147 338.448 26.2727 334.537 26.2727C330.47 26.2727 327.342 29.2147 327.342 32.8932C327.342 36.7182 330.47 39.6602 334.537 39.6602Z" fill="white"/>
</svg>
