<svg width="81" height="66" viewBox="0 0 81 66" fill="none" xmlns="http://www.w3.org/2000/svg">
<path d="M65.3839 21.4182C64.4451 21.1253 63.6664 20.8324 62.8833 20.6817C62.8833 20.0958 63.039 19.5057 63.1948 18.9157C65.0724 10.2362 63.8221 3.1721 59.5996 0.820189C55.5284 -1.38525 48.8054 0.966658 41.9222 6.55768C41.2948 7.00127 40.6719 7.58716 40.0446 8.17723C39.5774 7.73363 39.1057 7.44069 38.7943 7.00127C31.5996 1.11313 24.4005 -1.38525 20.178 0.96666C16.1113 3.1721 14.861 9.79678 16.5829 18.1791C16.7386 18.9157 16.8944 19.7987 17.2058 20.5352C16.1113 20.8282 15.1725 21.1211 14.2336 21.414C5.94442 24.2137 0 28.4781 0 32.8932C0 37.4547 6.25584 42.1627 15.0167 44.9583C15.6441 45.1047 16.4227 45.3977 17.0501 45.5441C16.8944 46.4272 16.7386 47.3102 16.4227 48.1932C14.861 56.2868 16.1113 62.7566 20.178 64.9662C24.4005 67.3223 31.5996 64.9662 38.4783 59.2287C38.95 58.7893 39.5774 58.3457 40.0446 57.9063C40.8276 58.4922 41.4506 59.0781 42.2337 59.6682C48.9612 65.1127 55.5284 67.3223 59.5996 65.1127C63.8221 62.7608 65.2281 55.8432 63.5062 47.3102C63.3504 46.7243 63.1947 45.9877 63.039 45.3977L64.445 44.9583C73.5173 42.1627 80.0891 37.6012 80.0891 32.8932C80.0891 28.4781 73.8333 24.0631 65.3839 21.4182ZM44.1113 8.91377C50.0557 4.0593 55.3727 2.28908 57.8777 3.61569C60.534 4.93812 61.633 10.8263 59.9111 18.3256C59.7553 18.9157 59.7554 19.3593 59.5996 19.7987C56.091 19.0924 52.5374 18.6003 48.9611 18.3256C46.9467 15.5531 44.7519 12.9004 42.3893 10.3827C43.0167 9.94326 43.4839 9.35318 44.1113 8.90959V8.91377ZM26.1224 40.5432C26.9055 41.8656 27.6886 43.0458 28.6274 44.3682C26.1224 44.0752 23.6219 43.7823 21.2726 43.1922C22.0557 41.1333 22.8387 38.9236 23.7775 36.7182C24.5606 38.0406 25.3393 39.2208 26.1224 40.5432ZM21.2726 22.8871C23.6219 22.3012 25.9666 22.0083 28.4672 21.7154C27.6885 22.8871 26.9055 24.2137 26.1224 25.3897C25.3393 26.7121 24.5606 27.8923 23.7775 29.2147C22.8387 27.0093 22.0557 24.9461 21.2726 22.8871ZM25.6552 33.0397C26.5941 30.9807 27.8443 28.9217 28.9388 27.0093C30.1891 25.0968 31.4394 23.1843 32.8499 21.2718C35.1947 21.1253 37.544 20.9788 40.0446 20.9788C42.3894 20.9788 44.8944 21.1253 47.0835 21.2718C48.4895 23.1843 49.7442 25.0968 50.9945 27.0051C52.0891 28.9218 53.3393 30.8342 54.2782 32.8932C53.3393 34.9522 52.2448 37.0111 50.9945 38.9236L47.2392 44.6611C44.8944 44.8118 42.3894 44.9541 40.0446 44.9541C37.544 44.9541 35.1947 44.8118 32.8499 44.6611C31.4394 42.7486 30.1891 40.8361 28.9388 38.9278C27.8443 37.0111 26.7498 34.9522 25.6552 33.0397ZM53.8109 40.5432C54.7498 39.2208 55.3727 37.8942 56.1558 36.5675C57.0946 38.7772 58.0334 40.8361 58.8165 43.0458C56.3115 43.6317 53.9667 44.0753 51.4617 44.2217C52.2448 43.0458 53.0279 41.7191 53.8109 40.5432ZM56.1558 29.2147C55.3727 27.8923 54.594 26.7121 53.8109 25.3897C53.0279 24.2137 52.2448 22.8871 51.4617 21.7112C53.9667 22.0041 56.4673 22.4477 58.6608 22.8871C57.8777 25.0968 57.0946 27.1557 56.1558 29.2147ZM40.0446 12.7388C41.6107 14.3541 43.1725 16.1202 44.5829 18.0327C41.5074 17.8857 38.426 17.8857 35.3505 18.0327C36.8376 16.2084 38.4036 14.4423 40.0446 12.7388ZM21.8999 3.61569C24.5606 2.28908 30.3448 4.35224 36.4449 9.35318C36.9166 9.7926 37.2281 10.0897 37.6997 10.3827C35.2404 12.8612 32.991 15.5169 30.9722 18.3256C27.3727 18.6185 23.9333 19.0621 20.4894 19.7987C20.1909 19.0385 19.982 18.2498 19.8665 17.4468C18.4561 10.3827 19.3949 5.08459 21.8999 3.61569ZM17.9889 42.4557C17.3417 42.3271 16.7119 42.1306 16.1113 41.8698C12.8276 40.8361 8.91663 39.3672 6.25589 37.3083C4.68242 36.265 3.61344 34.6771 3.28369 32.8932C3.28369 30.2442 8.28925 26.7121 15.3282 24.356C16.267 24.0631 17.2058 23.9166 18.1447 23.6237C19.0835 26.8628 20.4894 29.9512 21.8999 33.0397C20.3337 35.9817 19.0834 39.2208 17.9889 42.4557ZM36.2893 56.8727C33.6719 59.0808 30.6509 60.8248 27.3727 62.0201C25.6552 62.9073 23.7775 62.9073 21.8999 62.3172C19.3949 60.8483 18.4561 55.6967 19.8665 48.7833C20.0222 47.9002 20.178 47.0172 20.3338 46.2807C23.9333 47.0172 27.3727 47.4566 30.9722 47.7538C33.08 50.4529 35.3251 53.0548 37.6997 55.5502L36.2893 56.8727ZM40.0446 53.3448C38.3662 51.6193 36.7988 49.8012 35.3505 47.9002C36.9167 48.0467 38.4784 48.0467 40.0446 48.0467C41.6107 48.0467 43.1724 48.0467 44.7386 47.9002C43.3079 49.8124 41.7395 51.6343 40.0446 53.3448ZM60.534 57.7557C60.3527 59.5214 59.4576 61.1542 58.0334 62.3172C55.5284 63.6438 50.2114 61.8778 44.4227 57.3162C43.7824 56.6905 43.1034 56.1008 42.3893 55.5502C44.847 53.1224 47.0965 50.5154 49.1169 47.7538C52.7164 47.4608 56.1558 46.8708 59.7553 46.1342L60.2226 47.9002C60.8499 51.1352 61.0056 54.5207 60.534 57.7557ZM63.3505 41.8656C62.8833 42.0163 62.5674 42.1586 62.1002 42.3092C60.9759 39.0865 59.6171 35.9404 58.0334 32.8932C59.5925 29.9042 60.9002 26.8049 61.9445 23.6237C62.7276 23.9166 63.5062 24.0673 64.2893 24.3602C71.484 26.7121 76.6497 30.2442 76.6497 32.8932C76.6497 35.6887 71.1725 39.5137 63.3505 41.8656ZM40.0446 39.6602C43.9556 39.6602 47.0835 36.7182 47.0835 32.8932C47.0835 29.2147 43.9556 26.2727 40.0446 26.2727C35.9778 26.2727 32.8499 29.2147 32.8499 32.8932C32.8499 36.7182 35.9778 39.6602 40.0446 39.6602Z" fill="white"/>
</svg>
