<svg width="18" height="18" viewBox="0 0 13 18" fill="none" xmlns="http://www.w3.org/2000/svg">
<path d="M6.50002 0C2.91543 0 0 2.89003 0 6.44025C0 9.77512 4.86532 13.3835 6.27197 17.8389C6.30219 17.9351 6.39293 18.0007 6.49467 18C6.59677 17.9986 6.68605 17.9323 6.71489 17.8354C8.07955 13.2704 12.9997 9.77898 13 6.43957C12.9997 2.89003 10.0839 0 6.50002 0ZM6.50002 11.3257C3.68956 11.3257 1.40275 9.05956 1.40275 6.27527C1.40275 3.49065 3.68956 1.22487 6.50002 1.22487C9.30978 1.22487 11.5969 3.49065 11.5969 6.27527C11.5969 9.05956 9.30975 11.3257 6.50002 11.3257Z" fill="#BABABA"/>
</svg>
