<svg width="97" height="57" viewBox="0 0 97 57" fill="none" xmlns="http://www.w3.org/2000/svg">
<path d="M0 5.75127V10.7715H18.0426V56.3542H30.8459V10.7715H48.8884V5.84367C48.8884 3.07175 48.8884 0.823415 48.7496 0.761817C48.7496 0.66942 37.7506 0.638622 24.3922 0.638622L0.104093 0.731016V5.78207L0 5.75127ZM81.0875 0.607821C84.6266 1.347 87.333 2.76376 89.7618 5.01209C91.0456 6.24406 92.9539 8.4 93.0927 8.95438C93.0927 9.13917 87.0901 12.7427 83.4469 14.7446C83.3081 14.837 82.753 14.3134 82.1978 13.5126C80.3935 11.2335 78.5546 10.2479 75.6747 10.0631C71.511 9.81675 68.7353 11.7571 68.7353 14.991C68.7353 15.9766 68.9434 16.531 69.3598 17.3317C70.2966 19.0257 72.0315 20.0421 77.4096 22.1364C87.333 25.9247 91.6354 28.4194 94.2377 31.9921C97.187 35.996 97.8462 42.279 95.8685 46.9913C93.6479 52.1347 88.2351 55.615 80.4976 56.7546C78.0688 57.1242 72.5173 57.0626 69.915 56.6622C64.3634 55.7382 59.0547 53.2743 55.7932 50.102C54.5094 48.87 52.0459 45.5745 52.1847 45.3589L53.5032 44.6197L58.7077 41.9402L62.6285 39.9075L63.5307 40.9855C64.6757 42.587 67.2433 44.7429 68.7353 45.4821C73.2459 47.5457 79.2832 47.2685 82.2672 44.8661C83.551 43.819 84.1061 42.7102 84.1061 41.1702C84.1061 39.7535 83.8633 39.1067 83.0652 38.0287C81.9549 36.6736 79.7343 35.5648 73.4888 33.1009C66.3064 30.3906 63.2531 28.6658 60.4079 26.0171C58.7771 24.4155 57.2852 21.9208 56.5912 19.8573C56.0708 18.0709 55.8973 13.6974 56.383 11.9419C57.875 5.78207 63.1143 1.4702 70.6089 0.238233C73.0377 -0.192954 78.7628 -0.00815978 81.1569 0.546224L81.0875 0.607821Z" fill="white"/>
</svg>
