<svg width="12" height="43" viewBox="0 0 12 43" fill="none" xmlns="http://www.w3.org/2000/svg">
<path d="M9.92534 0.892268L9.92528 0.892542L0.925387 41.8921L9.92534 0.892268ZM9.92534 0.892268C9.98403 0.624193 10.2524 0.452761 10.5206 0.511688L10.521 0.511771M9.92534 0.892268L10.521 0.511771M10.521 0.511771C10.7895 0.57055 10.9607 0.83647 10.9014 1.1076L1.90154 42.1071L1.90143 42.1076M10.521 0.511771L1.90143 42.1076M1.90143 42.1076C1.85081 42.3394 1.64468 42.4993 1.41491 42.4993C1.38162 42.4993 1.34376 42.4956 1.3035 42.4874M1.90143 42.1076L1.3035 42.4874M1.3035 42.4874C1.03651 42.4276 0.866506 42.1627 0.925285 41.8925L1.3035 42.4874Z" stroke="url(#paint0_linear_441_19)"/>
<defs>
<linearGradient id="paint0_linear_441_19" x1="5.91341" y1="0" x2="5.91341" y2="42.9993" gradientUnits="userSpaceOnUse">
<stop offset="0.380208" stop-color="#9F9F9F"/>
<stop offset="1" stop-opacity="0.28"/>
</linearGradient>
</defs>
</svg>
