<svg width="25" height="32" viewBox="0 0 25 32" fill="none" xmlns="http://www.w3.org/2000/svg">
<path d="M1.73608 31.5779C1.41242 31.2991 1.00846 31.0853 0.694429 30.799C0.563821 30.0798 0.47141 29.3289 0.347225 28.6051C0.437152 25.9128 0.124193 23.5495 0.173438 20.8904C0.116342 20.6309 0.0813623 20.3524 0 20.1118C0.0399675 17.668 0.079222 15.2241 0.781507 13.3171C1.19046 12.4245 1.51164 11.4592 2.17039 10.7696C2.42375 10.3623 2.80164 10.0577 3.03823 9.63734C3.18343 9.43638 3.30016 9.22263 3.38618 9.00019C3.58851 8.8585 3.5307 8.50559 3.73303 8.36333C3.79869 7.32469 3.71233 6.52171 3.73303 5.39055C3.81511 5.06442 3.26341 5.25469 3.12638 5.1069C2.90905 5.04871 2.85161 4.85961 2.69281 4.75312C2.52094 4.18685 2.58186 3.59024 2.86623 3.05494C3.13387 2.87223 3.63204 2.87776 3.99496 2.77157C3.72304 2.05238 4.14269 1.35414 4.08167 0.57793C4.40921 0.386945 4.75795 0.221357 5.12333 0.0833381C5.32862 0.0792684 5.53403 0.0848072 5.73854 0.0999233C6.02487 0.129228 6.31495 0.123637 6.59926 0.0833381C6.73986 0.103122 6.7488 0.0164267 6.85978 0.0123536C6.99272 -0.0111236 7.13127 -0.000981078 7.25695 0.0414399C7.35119 0.0726231 7.45262 0.0867193 7.55421 0.0827521C8.04845 0.635527 8.06664 1.83156 7.98849 2.63105C7.91391 2.92693 8.37712 2.78612 8.50915 2.91384C8.7643 2.9182 8.8303 3.07531 8.94378 3.19721C9.14148 3.53091 8.937 4.19308 9.11757 4.54133C9.12078 4.75662 8.93416 4.81685 8.85673 4.96639C8.72683 5.07316 8.36141 4.98733 8.42314 5.24917C8.57659 6.56303 8.61121 7.97376 9.02979 9.07117C9.3527 9.50381 9.73105 9.90728 10.1585 10.2748C10.8158 11.3896 11.612 12.3919 12.0684 13.6717C12.4074 16.3774 12.1708 19.8858 12.2418 23.0139C12.3524 23.466 12.3639 23.9993 12.502 24.4293C12.5405 25.8604 12.6336 27.2479 12.589 28.7459C12.6528 29.0261 12.6818 29.3108 12.6757 29.5957C12.6208 29.8343 12.7874 30.2532 12.589 30.3745C12.5862 30.6547 12.2543 30.6672 12.0684 30.799C11.733 30.8086 11.6673 31.0382 11.2865 31.0108C10.8144 31.2124 10.3205 31.378 9.81093 31.5054C8.65144 31.7796 7.4575 31.9455 6.25206 32C4.73226 31.9953 3.21774 31.8537 1.73608 31.5779ZM5.03483 30.6573H5.29533V30.4449H5.12261C5.11797 30.488 5.10978 30.529 5.03555 30.5157L5.03483 30.6573ZM9.46266 27.4021C9.26211 27.6159 9.43196 28.132 9.37558 28.4637C9.21286 28.6848 9.1811 29.013 8.94165 29.1715C8.50914 29.4561 7.60523 29.3563 7.11849 29.596C6.94506 30.0467 7.37685 30.3556 7.72514 30.5869C8.25972 30.6275 8.79807 30.5546 9.28779 30.3751C9.53054 30.3928 9.77499 30.3635 10.0013 30.2896C10.2275 30.2158 10.4292 30.0994 10.59 29.9501C10.692 29.0834 10.8922 27.6005 10.2424 27.119H9.72172C9.59575 27.1801 9.44767 27.2246 9.46266 27.4021ZM11.1117 26.9075C11.1117 26.9473 11.183 26.9878 11.1987 26.9075C11.199 26.8966 11.1945 26.8859 11.186 26.8775C11.1775 26.8691 11.1655 26.8634 11.1524 26.8615C11.1356 26.8604 11.1177 26.8726 11.1117 26.9063V26.9075ZM5.20862 26.4129C5.32532 26.3952 5.43452 26.3534 5.52579 26.2915C5.61706 26.2297 5.68735 26.1497 5.72998 26.0594H5.12333C5.05124 26.2581 5.2443 26.2404 5.20862 26.4109V26.4129ZM6.51114 26.2008C6.7099 26.3294 7.40111 26.5907 7.46606 26.2008C7.26625 26.1509 7.05934 26.1223 6.8505 26.1158C6.78985 26.1105 6.72847 26.1151 6.67009 26.1296C6.61171 26.144 6.55752 26.168 6.51077 26.1999L6.51114 26.2008ZM3.03823 23.6528C3.08498 23.9216 3.30982 24.045 3.29947 24.3609C3.19848 24.788 3.10175 25.4083 3.55959 25.5639C3.49357 24.9579 3.41687 24.3583 3.38618 23.7238C3.343 23.5001 3.54211 23.4739 3.47288 23.2292V22.8041C3.3437 22.5787 3.4729 22.1437 3.29947 21.9552C3.15589 22.5136 3.06851 23.0807 3.03823 23.6508V23.6528ZM5.90342 24.7851C6.73861 24.8725 7.57936 24.9198 8.42136 24.9268C9.28173 24.7727 10.1512 24.6545 11.0264 24.5727V21.4577C10.9907 21.2875 11.1852 21.3041 11.1131 21.1036V20.2547C11.0581 20.0161 11.2251 19.5969 11.0264 19.4759C11.0035 19.7639 10.6788 19.8064 10.4197 19.9006C10.2152 20.0644 10.0839 20.2873 9.63858 20.255C8.88919 20.2285 9.09153 19.4267 8.59693 19.1934C8.44027 19.6557 8.31751 20.1456 7.72834 20.255C7.37791 20.2099 7.34366 19.9059 7.03391 19.8299C7.00457 19.9398 6.92629 20.0368 6.81421 20.1023C6.70214 20.1677 6.56425 20.1969 6.42726 20.1843C6.24883 20.0938 5.98691 20.0711 5.99298 19.8299C5.78886 19.7604 5.91483 19.4226 5.73283 19.3353C5.74068 18.9597 5.45484 18.3654 5.81954 18.132C6.12358 17.9197 6.30986 18.256 6.6007 18.274C6.60748 18.1757 6.75058 18.1891 6.89439 18.2024C6.96949 18.214 7.0466 18.214 7.12171 18.2024C7.45323 18.2865 7.39825 18.6851 7.72834 18.7686C7.89428 18.4558 7.98421 18.0808 8.5095 18.061C9.15826 18.0983 9.43125 18.4422 9.63858 18.8396C10.0118 18.7901 9.84412 18.299 10.4197 18.4151C10.935 18.466 10.9026 18.965 11.1142 19.2641C11.1713 17.9438 11.0367 16.7803 11.0274 15.5133C9.83736 15.4857 8.64633 15.5071 7.45892 15.5776C6.47436 15.6233 5.48911 15.669 4.43068 15.655C4.304 15.8654 4.54595 16.2898 4.51776 16.6442C4.65693 16.9316 4.56701 17.4061 4.69155 17.7058V18.6967C4.83108 20.1401 4.86997 21.6643 4.86533 23.2269C4.86712 23.3933 4.71581 23.4349 4.77826 23.6511C4.78376 24.0559 4.84188 24.4592 4.95167 24.8541C5.10538 24.8678 5.26092 24.8549 5.40811 24.8162C5.51631 24.7891 5.62858 24.7742 5.74176 24.772C5.7958 24.7722 5.84972 24.7759 5.90305 24.7831L5.90342 24.7851ZM4.77468 5.46387C4.86849 6.45273 4.89756 7.44498 4.86176 8.43636C4.46494 9.88231 3.40652 10.7888 2.69175 11.975C1.97697 13.1611 1.61013 14.6321 1.56267 16.3626C2.06053 16.5166 2.59811 16.5653 3.12531 16.5042C3.14672 15.9206 2.97293 15.4962 3.03823 14.8768C3.47716 14.4985 4.39428 14.509 5.30924 14.5195C5.50908 14.5215 5.70858 14.5239 5.90342 14.5224C7.38542 14.2449 9.23962 14.2699 10.9379 14.1689C10.9996 13.8853 10.7762 13.7075 10.6777 13.5318C10.657 13.4942 10.5482 13.3409 10.5043 13.249C10.4465 13.1262 10.3972 13.0162 10.3305 12.8946C10.1417 12.4582 9.84091 12.1141 9.63608 11.6913C9.36987 11.6253 9.42196 11.2994 9.20214 11.1967C9.18109 10.9058 8.90703 10.8243 8.85457 10.5599C8.52971 10.2012 8.23944 9.82253 7.98635 9.42727C7.64235 8.74066 7.6056 7.8027 7.55207 6.87898C7.61167 6.36112 7.72336 5.88602 7.72586 5.32219C7.24298 5.25105 6.74962 5.24027 6.26275 5.29019C5.76714 5.34265 5.26438 5.32938 4.77397 5.25091L4.77468 5.46387ZM4.94812 4.40226C5.20399 4.26319 5.00129 3.90447 4.94812 3.62343H4.68798C4.69618 3.94345 4.60091 4.35309 4.94812 4.40051V4.40226ZM5.72998 3.62343C5.69977 3.86163 5.72927 4.10236 5.81669 4.33098C6.0622 4.27279 6.35197 4.24865 6.59785 4.18959C6.75908 4.16755 6.92265 4.15907 7.08601 4.16428C7.49211 4.16428 7.8975 4.16428 7.89999 3.83581C7.80614 3.65223 7.46213 3.67259 7.11777 3.69325C6.94502 3.70937 6.77059 3.70937 6.59785 3.69325C6.39257 3.63661 6.17636 3.61089 5.95978 3.61732C5.88485 3.61674 5.80812 3.61848 5.72926 3.62168L5.72998 3.62343ZM4.77468 1.07513C4.96119 1.62814 5.04881 2.2002 5.03483 2.77361H6.51077C6.60285 2.4972 6.63223 2.20939 6.59748 1.92437C6.56179 1.78792 6.26133 1.86881 6.33698 1.64129C6.22992 1.41233 6.61782 1.58689 6.51077 1.3585V0.933447C6.29402 0.877926 6.06778 0.851018 5.8406 0.853735C5.46632 0.83818 5.09495 0.914702 4.77468 1.07338V1.07513ZM16.0598 31.3666C15.4799 31.0614 14.5828 31.014 14.5838 30.2343C14.7565 29.5256 15.9859 29.6778 16.6679 29.3848C17.4424 29.1208 18.1273 28.708 18.6641 28.1818C18.5021 26.7094 18.4393 25.1561 18.4039 23.5812C18.0696 23.1696 17.3334 23.0849 16.7542 22.8737C16.2154 22.6653 15.6935 22.4289 15.1919 22.1658C14.1067 21.2578 13.4333 20.0129 13.1935 18.4148C13.1107 15.7758 13.3213 13.3761 15.0163 12.1862C15.8821 11.9244 16.7217 11.6419 17.9682 11.6916C19.7382 11.5063 21.8643 11.6238 23.0894 12.1167C23.4534 12.4341 23.7175 12.8315 24.0447 13.1783C24.2185 14.0272 24.6375 14.6766 24.7392 15.5846C24.8858 15.7245 24.8341 16.0265 24.9129 16.2218C24.8863 16.4365 24.916 16.6534 25 16.858V18.274C24.8769 18.7395 24.9069 19.331 24.6524 19.6897C24.636 20.2186 24.2956 20.4857 24.2185 20.9634C23.9541 21.0073 24.049 21.3445 23.7842 21.3879C23.7671 21.634 23.4773 21.6567 23.437 21.8825C22.7947 22.3264 22.0524 22.6878 21.3537 23.0855C21.0186 23.0954 20.9526 23.3243 20.5722 23.2981C20.4216 23.4343 19.9694 23.3255 19.9655 23.5806C19.6444 23.8498 19.9481 24.1884 19.8788 24.6423C19.8763 25.0691 20.0265 25.3696 19.9655 25.8456C20.1885 26.0885 19.9299 26.723 20.139 26.9779V28.1809C20.3759 28.4832 20.9376 28.5207 21.3544 28.6755C21.6984 28.8672 22.2465 28.8922 22.5677 29.1008C23.0045 29.2399 23.4552 29.3679 23.8702 29.5253C23.9758 29.5417 24.0763 29.5753 24.1657 29.6239C24.2551 29.6725 24.3317 29.7352 24.3908 29.8084C24.4486 29.8061 24.5063 29.8136 24.5603 29.8306C24.6142 29.8475 24.6632 29.8735 24.704 29.9068C24.7449 29.9401 24.7768 29.9801 24.7976 30.0241C24.8184 30.068 24.8277 30.1151 24.8248 30.1622C24.8298 30.8976 23.9116 30.8799 23.4359 31.2238C22.7372 31.3617 22.0799 31.5351 21.3526 31.6486C21.0048 31.6551 20.6608 31.6586 20.3206 31.659C18.8918 31.6786 17.4642 31.5802 16.0598 31.3652V31.3666ZM18.9246 30.3053H20.8345C21.0411 30.1671 21.6395 30.3484 21.7027 30.0926C21.1926 29.9059 20.671 29.7408 20.14 29.5981C19.8435 29.486 19.7992 29.1677 19.3585 29.1736C19.3113 29.2293 19.2449 29.2724 19.1677 29.2976C19.0905 29.3227 19.0059 29.3288 18.9246 29.315C18.6202 29.7514 17.9565 29.8942 17.5357 30.2352C17.6785 30.2334 17.8191 30.2314 17.9586 30.2314C18.2831 30.2218 18.6077 30.2461 18.9246 30.3038V30.3053ZM21.1817 16.9284C21.0593 17.421 21.146 18.0448 21.0946 18.6269C21.0265 19.3865 20.7128 20.1308 21.4425 20.4671C22.5438 20.5162 22.5941 19.708 22.8314 19.0517C22.8789 18.2106 22.7754 17.4926 22.7443 16.7163C22.8462 16.7115 22.9483 16.7115 23.0502 16.7163C23.2422 16.746 23.4409 16.7208 23.6129 16.6451C23.5772 15.6367 23.2386 14.8741 23.0063 14.0267C20.5172 14.4145 16.9426 14.3298 14.9332 13.6732C14.6475 14.6936 14.5305 15.7405 14.5853 16.7862C15.3699 16.7845 16.1536 16.8317 16.9294 16.9273H19.0998C19.6583 16.9273 20.1682 16.9046 20.5986 16.9046C20.7931 16.9027 20.9875 16.9102 21.181 16.927L21.1817 16.9284ZM17.3634 12.3282C16.7699 12.4341 15.9288 12.3381 15.8878 12.8946C16.0473 13.4718 17.1321 13.2955 17.7977 13.4608H20.6625C21.6088 13.4608 22.7275 13.6537 22.9192 12.9662C23.0112 12.6083 22.663 12.6092 22.5716 12.4003C22.3022 12.3536 22.0402 12.2822 21.7905 12.1874C21.5028 12.1999 21.1917 12.1935 20.8809 12.1874C20.3721 12.1553 19.8604 12.1794 19.3596 12.2589C19.2258 12.2517 19.0966 12.2487 18.9713 12.2487C18.4011 12.2458 17.9079 12.3081 17.3627 12.3267L17.3634 12.3282ZM8.94165 23.6522C8.95557 23.5699 8.92237 23.5263 8.85457 23.5105C8.77499 23.016 9.88944 22.9551 10.07 23.2987C10.0343 23.6112 9.67463 23.6575 9.25747 23.6575C9.15505 23.656 9.04799 23.6531 8.94093 23.6508L8.94165 23.6522ZM7.6395 22.0247C7.73656 21.5377 8.48559 21.5816 9.20214 21.5994C9.69032 21.5275 10.7455 21.3629 10.7644 21.8833C10.7605 22.3285 10.1164 22.2514 9.72281 22.3779H8.40744C8.25192 22.3814 8.0982 22.3502 7.96285 22.2876C7.82751 22.2251 7.7157 22.1336 7.6395 22.023V22.0247ZM5.64111 2.41983C5.14473 2.11173 5.92839 1.55518 6.16285 2.06635C6.1864 2.31626 6.0358 2.42478 5.75317 2.42478C5.71619 2.42418 5.67927 2.42204 5.64255 2.41838L5.64111 2.41983ZM5.38097 1.49989V1.21652C5.6247 1.13128 5.93481 1.17608 5.90198 1.49989C5.82745 1.54703 5.73581 1.57262 5.64148 1.57262C5.54716 1.57262 5.4555 1.54703 5.38097 1.49989Z" fill="gray"/>
</svg>
